<svg xmlns="http://www.w3.org/2000/svg" width="1920" height="540" viewBox="0 0 1920 540" fill="none">
  <defs>
    <linearGradient id="bg" x1="0" y1="0" x2="1920" y2="540" gradientUnits="userSpaceOnUse">
      <stop stop-color="#0F172A"/>
      <stop offset="0.5" stop-color="#0F766E"/>
      <stop offset="1" stop-color="#84CC16"/>
    </linearGradient>
    <radialGradient id="limeGlow" cx="0" cy="0" r="1" gradientUnits="userSpaceOnUse" gradientTransform="translate(1510 118) scale(540 420)">
      <stop stop-color="#BEF264" stop-opacity="0.52"/>
      <stop offset="0.58" stop-color="#2DD4BF" stop-opacity="0.18"/>
      <stop offset="1" stop-color="#0F172A" stop-opacity="0"/>
    </radialGradient>
    <radialGradient id="blueGlow" cx="0" cy="0" r="1" gradientUnits="userSpaceOnUse" gradientTransform="translate(520 440) scale(640 360)">
      <stop stop-color="#38BDF8" stop-opacity="0.24"/>
      <stop offset="1" stop-color="#38BDF8" stop-opacity="0"/>
    </radialGradient>
    <pattern id="dots" width="46" height="46" patternUnits="userSpaceOnUse">
      <circle cx="3" cy="3" r="2" fill="#FFFFFF" fill-opacity="0.12"/>
    </pattern>
  </defs>
  <rect width="1920" height="540" fill="url(#bg)"/>
  <rect width="1920" height="540" fill="url(#dots)" opacity="0.72"/>
  <rect width="1920" height="540" fill="url(#limeGlow)"/>
  <rect width="1920" height="540" fill="url(#blueGlow)"/>
  <path d="M0 454C266 382 494 396 720 340C968 278 1188 186 1432 236C1634 277 1782 250 1920 184V540H0V454Z" fill="#FFFFFF" fill-opacity="0.1"/>
  <path d="M1148 444C1228 290 1362 258 1468 186C1586 106 1692 78 1828 104" stroke="#FFFFFF" stroke-opacity="0.14" stroke-width="68" stroke-linecap="round"/>
  <path d="M1176 402C1270 302 1354 304 1444 220C1518 151 1582 140 1668 96" stroke="#FDE68A" stroke-opacity="0.35" stroke-width="16" stroke-linecap="round" stroke-linejoin="round"/>
  <circle cx="1668" cy="96" r="20" fill="#FDE68A" fill-opacity="0.7"/>
  <circle cx="920" cy="306" r="82" fill="#FFFFFF" fill-opacity="0.08"/>
  <path d="M882 306L914 338L978 272" stroke="#FFFFFF" stroke-width="16" stroke-linecap="round" stroke-linejoin="round" stroke-opacity="0.54"/>
</svg>
