<svg xmlns="http://www.w3.org/2000/svg" width="1920" height="540" viewBox="0 0 1920 540" fill="none">
  <defs>
    <linearGradient id="bg" x1="0" y1="0" x2="1920" y2="540" gradientUnits="userSpaceOnUse">
      <stop stop-color="#12345A"/>
      <stop offset="0.48" stop-color="#0F766E"/>
      <stop offset="1" stop-color="#F97316"/>
    </linearGradient>
    <radialGradient id="orangeGlow" cx="0" cy="0" r="1" gradientUnits="userSpaceOnUse" gradientTransform="translate(1580 350) scale(600 420)">
      <stop stop-color="#FDBA74" stop-opacity="0.5"/>
      <stop offset="0.55" stop-color="#F97316" stop-opacity="0.18"/>
      <stop offset="1" stop-color="#12345A" stop-opacity="0"/>
    </radialGradient>
    <radialGradient id="cyanGlow" cx="0" cy="0" r="1" gradientUnits="userSpaceOnUse" gradientTransform="translate(740 170) scale(620 360)">
      <stop stop-color="#67E8F9" stop-opacity="0.32"/>
      <stop offset="1" stop-color="#67E8F9" stop-opacity="0"/>
    </radialGradient>
    <pattern id="waves" width="180" height="88" patternUnits="userSpaceOnUse">
      <path d="M0 44C40 8 82 8 122 44C144 64 162 72 180 72" stroke="#FFFFFF" stroke-opacity="0.08" stroke-width="3" fill="none"/>
    </pattern>
  </defs>
  <rect width="1920" height="540" fill="url(#bg)"/>
  <rect width="1920" height="540" fill="url(#waves)" opacity="0.75"/>
  <rect width="1920" height="540" fill="url(#orangeGlow)"/>
  <rect width="1920" height="540" fill="url(#cyanGlow)"/>
  <path d="M0 378C244 316 438 335 650 402C865 471 1092 449 1318 321C1518 207 1694 171 1920 225V540H0V378Z" fill="#FFFFFF" fill-opacity="0.1"/>
  <circle cx="1494" cy="136" r="170" fill="#FFFFFF" fill-opacity="0.09"/>
  <circle cx="1694" cy="420" r="208" fill="#0F172A" fill-opacity="0.18"/>
  <circle cx="1016" cy="268" r="34" fill="#FFFFFF" fill-opacity="0.66"/>
  <circle cx="934" cy="334" r="24" fill="#FFFFFF" fill-opacity="0.38"/>
  <circle cx="1048" cy="368" r="18" fill="#FFFFFF" fill-opacity="0.3"/>
  <path d="M1082 270H1156" stroke="#FFFFFF" stroke-width="10" stroke-linecap="round" stroke-opacity="0.52"/>
  <path d="M966 336H1132" stroke="#FFFFFF" stroke-width="8" stroke-linecap="round" stroke-opacity="0.34"/>
</svg>
