<svg xmlns="http://www.w3.org/2000/svg" width="1920" height="540" viewBox="0 0 1920 540" fill="none">
  <defs>
    <linearGradient id="bg" x1="0" y1="0" x2="1920" y2="540" gradientUnits="userSpaceOnUse">
      <stop stop-color="#1E3A5F"/>
      <stop offset="0.5" stop-color="#0F766E"/>
      <stop offset="1" stop-color="#F97316"/>
    </linearGradient>
    <filter id="shadow" x="-30%" y="-30%" width="160%" height="160%" color-interpolation-filters="sRGB">
      <feDropShadow dx="0" dy="26" stdDeviation="28" flood-color="#0F172A" flood-opacity="0.25"/>
    </filter>
  </defs>
  <rect width="1920" height="540" fill="url(#bg)"/>
  <path d="M0 378C244 316 438 335 650 402C865 471 1092 449 1318 321C1518 207 1694 171 1920 225V540H0V378Z" fill="#FFFFFF" fill-opacity="0.1"/>
  <text x="112" y="126" fill="#FFFFFF" fill-opacity="0.18" font-family="Arial, sans-serif" font-size="48" font-weight="700">MYPPL COMMUNITY PICKS</text>
  <g filter="url(#shadow)">
    <rect x="1032" y="104" width="314" height="256" rx="32" fill="#FFFFFF" fill-opacity="0.9"/>
    <circle cx="1098" cy="168" r="34" fill="#14B8A6"/>
    <rect x="1162" y="142" width="126" height="18" rx="9" fill="#0F172A" fill-opacity="0.24"/>
    <rect x="1162" y="176" width="96" height="14" rx="7" fill="#0F172A" fill-opacity="0.14"/>
    <rect x="1080" y="236" width="210" height="62" rx="18" fill="#CCFBF1"/>
  </g>
  <g filter="url(#shadow)">
    <rect x="1336" y="72" width="366" height="318" rx="36" fill="#FFFFFF" fill-opacity="0.92"/>
    <circle cx="1412" cy="148" r="38" fill="#F97316"/>
    <rect x="1482" y="122" width="144" height="20" rx="10" fill="#0F172A" fill-opacity="0.25"/>
    <rect x="1482" y="160" width="110" height="14" rx="7" fill="#0F172A" fill-opacity="0.14"/>
    <rect x="1390" y="232" width="246" height="70" rx="20" fill="#FED7AA"/>
    <path d="M1426 267L1472 300L1548 230" stroke="#0F766E" stroke-width="16" stroke-linecap="round" stroke-linejoin="round"/>
  </g>
  <circle cx="947" cy="274" r="38" fill="#FFFFFF" fill-opacity="0.82"/>
  <circle cx="880" cy="332" r="28" fill="#FFFFFF" fill-opacity="0.52"/>
  <circle cx="968" cy="366" r="22" fill="#FFFFFF" fill-opacity="0.42"/>
  <path d="M979 273H1020" stroke="#FFFFFF" stroke-width="12" stroke-linecap="round"/>
  <path d="M907 334H1016" stroke="#FFFFFF" stroke-width="10" stroke-linecap="round" opacity="0.6"/>
</svg>
