<svg xmlns="http://www.w3.org/2000/svg" width="1920" height="540" viewBox="0 0 1920 540" fill="none">
  <defs>
    <linearGradient id="bg" x1="0" y1="0" x2="1920" y2="540" gradientUnits="userSpaceOnUse">
      <stop stop-color="#052E2A"/>
      <stop offset="0.48" stop-color="#0F5F55"/>
      <stop offset="1" stop-color="#F59E0B"/>
    </linearGradient>
    <radialGradient id="sun" cx="0" cy="0" r="1" gradientUnits="userSpaceOnUse" gradientTransform="translate(1480 170) rotate(115) scale(520 520)">
      <stop stop-color="#FDE68A" stop-opacity="0.65"/>
      <stop offset="0.52" stop-color="#FB923C" stop-opacity="0.22"/>
      <stop offset="1" stop-color="#052E2A" stop-opacity="0"/>
    </radialGradient>
    <radialGradient id="tealGlow" cx="0" cy="0" r="1" gradientUnits="userSpaceOnUse" gradientTransform="translate(760 310) scale(620 360)">
      <stop stop-color="#5EEAD4" stop-opacity="0.35"/>
      <stop offset="1" stop-color="#5EEAD4" stop-opacity="0"/>
    </radialGradient>
    <pattern id="grid" width="64" height="64" patternUnits="userSpaceOnUse">
      <path d="M64 0H0V64" stroke="#FFFFFF" stroke-opacity="0.08"/>
    </pattern>
  </defs>
  <rect width="1920" height="540" fill="url(#bg)"/>
  <rect width="1920" height="540" fill="url(#grid)" opacity="0.55"/>
  <rect width="1920" height="540" fill="url(#sun)"/>
  <rect width="1920" height="540" fill="url(#tealGlow)"/>
  <path d="M0 405C282 328 492 375 718 428C978 489 1184 438 1376 322C1586 195 1726 166 1920 214V540H0V405Z" fill="#FFFFFF" fill-opacity="0.11"/>
  <path d="M1280 60L1724 540H1022L1280 60Z" fill="#FFFFFF" fill-opacity="0.08"/>
  <circle cx="1704" cy="430" r="170" fill="#041B19" fill-opacity="0.22"/>
  <circle cx="1040" cy="120" r="8" fill="#FFFFFF" fill-opacity="0.72"/>
  <circle cx="1112" cy="180" r="5" fill="#FFFFFF" fill-opacity="0.42"/>
  <circle cx="966" cy="252" r="12" fill="#FDE68A" fill-opacity="0.7"/>
</svg>
