<svg xmlns="http://www.w3.org/2000/svg" width="1920" height="540" viewBox="0 0 1920 540" fill="none">
  <defs>
    <linearGradient id="bg" x1="0" y1="0" x2="1920" y2="540" gradientUnits="userSpaceOnUse">
      <stop stop-color="#063F39"/>
      <stop offset="0.54" stop-color="#0B6B5E"/>
      <stop offset="1" stop-color="#F59E0B"/>
    </linearGradient>
    <linearGradient id="card" x1="0" y1="0" x2="1" y2="1">
      <stop stop-color="#FFFFFF" stop-opacity="0.95"/>
      <stop offset="1" stop-color="#ECFDF5" stop-opacity="0.82"/>
    </linearGradient>
    <filter id="shadow" x="-30%" y="-30%" width="160%" height="160%" color-interpolation-filters="sRGB">
      <feDropShadow dx="0" dy="26" stdDeviation="28" flood-color="#052E2A" flood-opacity="0.28"/>
    </filter>
  </defs>
  <rect width="1920" height="540" fill="url(#bg)"/>
  <path d="M0 408C252 340 422 382 651 422C873 461 1056 448 1229 359C1453 244 1647 128 1920 175V540H0V408Z" fill="#FFFFFF" fill-opacity="0.08"/>
  <circle cx="1534" cy="88" r="262" fill="#FFFFFF" fill-opacity="0.08"/>
  <circle cx="1772" cy="438" r="180" fill="#052E2A" fill-opacity="0.22"/>
  <text x="108" y="126" fill="#FFFFFF" fill-opacity="0.2" font-family="Arial, sans-serif" font-size="48" font-weight="700">MYPPL SELLER BOOST</text>
  <g filter="url(#shadow)">
    <rect x="1180" y="96" width="250" height="320" rx="28" fill="url(#card)"/>
    <rect x="1216" y="132" width="178" height="132" rx="20" fill="#A7F3D0"/>
    <rect x="1216" y="294" width="148" height="18" rx="9" fill="#0F766E" fill-opacity="0.84"/>
    <rect x="1216" y="330" width="110" height="14" rx="7" fill="#64748B" fill-opacity="0.35"/>
    <rect x="1216" y="364" width="86" height="30" rx="15" fill="#F59E0B"/>
  </g>
  <g filter="url(#shadow)">
    <rect x="1452" y="68" width="300" height="372" rx="32" fill="#FFFFFF" fill-opacity="0.92"/>
    <rect x="1494" y="112" width="216" height="150" rx="22" fill="#CFFAFE"/>
    <rect x="1494" y="296" width="168" height="20" rx="10" fill="#0F766E"/>
    <rect x="1494" y="334" width="124" height="14" rx="7" fill="#64748B" fill-opacity="0.35"/>
    <rect x="1494" y="370" width="100" height="36" rx="18" fill="#FB7185"/>
  </g>
  <path d="M963 168L1098 91V245L963 168Z" fill="#FFFFFF" fill-opacity="0.88"/>
  <rect x="839" y="128" width="156" height="80" rx="40" fill="#FFFFFF" fill-opacity="0.88"/>
  <rect x="816" y="216" width="204" height="14" rx="7" fill="#FFFFFF" fill-opacity="0.38"/>
  <rect x="868" y="248" width="124" height="14" rx="7" fill="#FFFFFF" fill-opacity="0.28"/>
  <circle cx="1128" cy="290" r="18" fill="#FDE68A"/>
  <circle cx="1086" cy="336" r="12" fill="#FFFFFF" fill-opacity="0.55"/>
  <circle cx="1172" cy="360" r="10" fill="#FFFFFF" fill-opacity="0.44"/>
</svg>
