<svg xmlns="http://www.w3.org/2000/svg" width="1920" height="540" viewBox="0 0 1920 540" fill="none">
  <defs>
    <linearGradient id="bg" x1="0" y1="0" x2="1920" y2="540" gradientUnits="userSpaceOnUse">
      <stop stop-color="#102A43"/>
      <stop offset="0.55" stop-color="#0F766E"/>
      <stop offset="1" stop-color="#84CC16"/>
    </linearGradient>
    <filter id="shadow" x="-30%" y="-30%" width="160%" height="160%" color-interpolation-filters="sRGB">
      <feDropShadow dx="0" dy="28" stdDeviation="30" flood-color="#082F49" flood-opacity="0.26"/>
    </filter>
  </defs>
  <rect width="1920" height="540" fill="url(#bg)"/>
  <path d="M0 0H1920V540H0V0Z" fill="url(#bg)"/>
  <path d="M680 448C890 265 1054 290 1229 323C1452 366 1664 336 1920 124V540H680V448Z" fill="#FFFFFF" fill-opacity="0.1"/>
  <text x="112" y="126" fill="#FFFFFF" fill-opacity="0.18" font-family="Arial, sans-serif" font-size="48" font-weight="700">MYPPL AD PERFORMANCE</text>
  <g filter="url(#shadow)">
    <rect x="1140" y="100" width="566" height="306" rx="34" fill="#FFFFFF" fill-opacity="0.9"/>
    <rect x="1192" y="304" width="56" height="62" rx="14" fill="#99F6E4"/>
    <rect x="1278" y="252" width="56" height="114" rx="14" fill="#5EEAD4"/>
    <rect x="1364" y="196" width="56" height="170" rx="14" fill="#2DD4BF"/>
    <rect x="1450" y="142" width="56" height="224" rx="14" fill="#0F766E"/>
    <rect x="1536" y="220" width="56" height="146" rx="14" fill="#84CC16"/>
    <path d="M1210 266C1294 232 1356 245 1424 180C1485 122 1554 125 1646 88" stroke="#F59E0B" stroke-width="14" stroke-linecap="round" stroke-linejoin="round"/>
    <circle cx="1646" cy="88" r="18" fill="#F59E0B"/>
    <rect x="1192" y="122" width="198" height="18" rx="9" fill="#0F172A" fill-opacity="0.2"/>
    <rect x="1192" y="154" width="122" height="14" rx="7" fill="#0F172A" fill-opacity="0.14"/>
  </g>
  <circle cx="958" cy="324" r="86" fill="#FFFFFF" fill-opacity="0.12"/>
  <path d="M923 324L954 355L1008 294" stroke="#FFFFFF" stroke-width="22" stroke-linecap="round" stroke-linejoin="round"/>
</svg>
