<svg width="197" height="45" viewBox="0 0 197 45" fill="none" xmlns="http://www.w3.org/2000/svg">
<g clip-path="url(#clip0_148_24)">
<rect width="197" height="45" fill="white"/>
<path d="M189.549 0H7.45097C3.33591 0 0 3.34893 0 7.48003V37.52C0 41.6511 3.33591 45 7.45097 45H189.549C193.664 45 197 41.6511 197 37.52V7.48003C197 3.34893 193.664 0 189.549 0Z" fill="#231F20"/>
<path d="M157.747 11.1668H164.19V29.3877C164.19 30.0532 164.721 30.5856 165.384 30.5856H172.238L175.049 35.7631H163.435C160.293 35.7631 157.747 33.2076 157.747 30.0532V11.1801V11.1668Z" fill="#FFE600"/>
<path d="M121.155 18.0745C121.155 14.268 118.079 11.1668 114.274 11.1668H94.4934V35.7498H100.937V29.2813H114.261C118.053 29.2813 121.142 26.1934 121.142 22.3736V18.0612L121.155 18.0745ZM100.95 24.4099V16.0648H112.975C114.672 16.0648 116.038 17.3159 115.998 18.8199C115.971 19.7515 115.945 20.803 115.945 21.7347C115.945 23.2121 114.579 24.4099 112.922 24.4099H100.95Z" fill="#FFE600"/>
<path d="M152.775 18.0745C152.775 14.268 149.699 11.1668 145.894 11.1668H126.114V35.7498H132.557V29.2813H145.881C149.673 29.2813 152.762 26.1934 152.762 22.3736V18.0612L152.775 18.0745ZM132.57 24.4099V16.0648H144.595C146.292 16.0648 147.658 17.3159 147.618 18.8199C147.591 19.7515 147.565 20.803 147.565 21.7347C147.565 23.2121 146.199 24.4099 144.542 24.4099H132.57Z" fill="#FFE600"/>
<path d="M82.2695 11.1668V21.7746H70.4434C69.6214 21.7746 68.9452 21.0958 68.9452 20.2706V11.1668H62.5151V20.4303C62.5151 24.4366 65.7633 27.7107 69.7672 27.7107H82.2297L82.2032 29.8003C82.2032 30.1996 81.8718 30.4925 81.421 30.4925H79.366L75.7731 36.4019H82.4021C85.7961 36.4019 88.5538 33.6335 88.5538 30.2263V11.1668H82.2695Z" fill="#FFE600"/>
<path d="M50.8349 11.1668L41.4748 21.5217L32.1279 11.1668H25.6846V35.7631H32.1279V19.6318L41.4748 29.9867L50.8349 19.6318V35.7631H57.2783V11.1668H50.8349Z" fill="#FFE600"/>
</g>
<defs>
<clipPath id="clip0_148_24">
<rect width="197" height="45" fill="white"/>
</clipPath>
</defs>
</svg>
