<svg width="109" height="25" viewBox="0 0 109 25" fill="none" xmlns="http://www.w3.org/2000/svg">
<g clip-path="url(#clip0_149_35)">
<path d="M95.6101 5.51001H100.47V19.2C100.47 19.7 100.87 20.1 101.37 20.1H106.54L108.66 23.99H99.9001C97.5301 23.99 95.6101 22.07 95.6101 19.7V5.51001Z" fill="#231F20"/>
<path d="M70.0099 10.69C70.0099 7.83 67.6899 5.5 64.8199 5.5H49.8999V23.97H54.7599V19.11H64.8099C67.6699 19.11 69.9999 16.79 69.9999 13.92V10.68L70.0099 10.69ZM54.7699 15.45V9.18H63.8399C65.1199 9.18 66.1499 10.12 66.1199 11.25C66.0999 11.95 66.0799 12.74 66.0799 13.44C66.0799 14.55 65.0499 15.45 63.7999 15.45H54.7699Z" fill="#231F20"/>
<path d="M92.86 10.69C92.86 7.83 90.54 5.5 87.67 5.5H72.75V23.97H77.61V19.11H87.66C90.52 19.11 92.85 16.79 92.85 13.92V10.68L92.86 10.69ZM77.62 15.45V9.18H86.69C87.97 9.18 89 10.12 88.97 11.25C88.95 11.95 88.93 12.74 88.93 13.44C88.93 14.55 87.9 15.45 86.65 15.45H77.62Z" fill="#231F20"/>
<path d="M41.68 5.51001V13.48H32.76C32.14 13.48 31.63 12.97 31.63 12.35V5.51001H26.78V12.47C26.78 15.48 29.23 17.94 32.25 17.94H41.65L41.63 20.11C41.63 20.41 41.38 20.63 41.04 20.63H40.26L39.55 24.47H41.78C44.34 24.47 46.42 22.39 46.42 19.83V5.51001H41.68Z" fill="#231F20"/>
<path d="M18.97 5.51001L11.92 13.28L4.86 5.51001H0V23.98H4.86V11.86L11.92 19.64L18.97 11.86V23.98H23.83V5.51001H18.97Z" fill="#231F20"/>
<path d="M58.3201 0H54.8101V3.51H58.3201V0Z" fill="#231F20"/>
<path d="M81.1699 0H77.6599V3.51H81.1699V0Z" fill="#231F20"/>
</g>
<defs>
<clipPath id="clip0_149_35">
<rect width="108.67" height="24.47" fill="white"/>
</clipPath>
</defs>
</svg>
