<svg width="124" height="45" viewBox="0 0 124 45" fill="none" xmlns="http://www.w3.org/2000/svg">
<g clip-path="url(#clip0_1107_415)">
<path d="M44.3997 7.25V15.95H34.6596C33.9796 15.95 33.4296 15.4 33.4296 14.72V7.25H28.1396V14.85C28.1396 18.14 30.8196 20.82 34.0996 20.82H44.3596L44.3396 23.18C44.3396 23.5 44.0696 23.75 43.6996 23.75H42.8496L42.0696 27.95H44.5096C47.2996 27.95 49.5696 25.68 49.5696 22.89V7.25H44.3896H44.3997Z" fill="#231815"/>
<path d="M20.7 7.25L13 15.74L5.31 7.25H0V27.41H5.31V14.18L13 22.67L20.7 14.18V27.41H26.01V7.25H20.7Z" fill="#231815"/>
<path d="M69.51 3.30005H66V6.81005H69.51V3.30005Z" fill="white"/>
<path d="M91.3596 3.30005H87.8496V6.81005H91.3596V3.30005Z" fill="white"/>
<path d="M114.09 0H63.6096C58.3796 0 54.1396 4.24 54.1396 9.47V25.18C54.1396 30.41 58.3796 34.65 63.6096 34.65H73.9296C73.5596 37.69 72.2497 41.04 69.5797 44.7C73.8897 43.78 80.9696 40.51 86.5596 34.65H114.1C119.33 34.65 123.57 30.41 123.57 25.18V9.47C123.57 4.24 119.33 0 114.1 0L114.09 0Z" fill="#E84469"/>
<path d="M104.8 8.80005H109.66V22.49C109.66 22.99 110.06 23.39 110.56 23.39H115.73L117.85 27.28H109.09C106.72 27.28 104.8 25.36 104.8 22.99V8.81005V8.80005Z" fill="white"/>
<path d="M81.1998 13.99C81.1998 11.13 78.8798 8.80005 76.0098 8.80005H61.0898V27.2701H65.9498V22.41H75.9998C78.8598 22.41 81.1898 20.09 81.1898 17.22V13.98L81.1998 13.99ZM65.9598 18.75V12.48H75.0298C76.3098 12.48 77.3398 13.42 77.3098 14.55C77.2898 15.25 77.2698 16.04 77.2698 16.74C77.2698 17.85 76.2398 18.75 74.9898 18.75H65.9598Z" fill="white"/>
<path d="M103.05 13.99C103.05 11.13 100.73 8.80005 97.8604 8.80005H82.9404V27.2701H87.8004V22.41H97.8504C100.71 22.41 103.04 20.09 103.04 17.22V13.98L103.05 13.99ZM87.8104 18.75V12.48H96.8804C98.1604 12.48 99.1904 13.42 99.1604 14.55C99.1404 15.25 99.1204 16.04 99.1204 16.74C99.1204 17.85 98.0904 18.75 96.8404 18.75H87.8104Z" fill="white"/>
</g>
<defs>
<clipPath id="clip0_1107_415">
<rect width="123.56" height="44.69" fill="white"/>
</clipPath>
</defs>
</svg>
