<svg width="118" height="47" viewBox="0 0 118 47" fill="none" xmlns="http://www.w3.org/2000/svg">
<g clip-path="url(#clip0_1105_397)">
<path d="M66.1705 2.1001L49.0605 31.9501C50.6905 34.8101 53.7605 36.7401 57.2905 36.7401H60.3105L80.1705 2.1001H66.1805H66.1705Z" fill="#4AB7EA"/>
<path d="M80.1703 2.1001L60.3203 36.7401H67.6103C67.2403 39.7801 65.9303 43.1301 63.2603 46.7901C65.1103 46.3901 67.4603 45.5601 69.9903 44.2901L94.1603 2.1001H80.1703Z" fill="#30AE52"/>
<path d="M57.2903 2.1001C52.0603 2.1001 47.8203 6.3401 47.8203 11.5701V27.2801C47.8203 28.9801 48.2803 30.5701 49.0603 31.9501L66.1703 2.1001H57.2903Z" fill="#514A9C"/>
<path d="M102.301 36.74H107.771C113.001 36.74 117.241 32.5 117.241 27.27V11.56C117.241 11.28 117.221 11.01 117.201 10.74L102.301 36.74Z" fill="#B41E23"/>
<path d="M108.151 2.11011L88.3105 36.7401H102.301L117.201 10.7401C116.791 6.02011 112.931 2.30011 108.151 2.12011V2.11011Z" fill="#E84469"/>
<path d="M107.77 2.10009H94.1605L69.9805 44.2901C73.3505 42.5901 77.0305 40.0901 80.2305 36.7401H88.3005L108.15 2.11009C108.03 2.11009 107.9 2.09009 107.78 2.09009L107.77 2.10009Z" fill="#FDD400"/>
<path opacity="0.69" d="M107.77 2.1001H57.2903C52.0603 2.1001 47.8203 6.3401 47.8203 11.5701V27.2801C47.8203 32.5101 52.0603 36.7501 57.2903 36.7501H67.6103C67.2403 39.7901 65.9303 43.1401 63.2603 46.8001C67.5703 45.8801 74.6503 42.6101 80.2403 36.7501H107.78C113.01 36.7501 117.25 32.5101 117.25 27.2801V11.5701C117.25 6.3401 113.01 2.1001 107.78 2.1001H107.77Z" fill="#E84469"/>
<path d="M39.6399 10.8999V18.6699H30.9499C30.3399 18.6699 29.8499 18.1799 29.8499 17.5699V10.8999H25.1299V17.6799C25.1299 20.6199 27.5199 23.0099 30.4599 23.0099H39.6199L39.5999 25.1199C39.5999 25.4099 39.3499 25.6299 39.0299 25.6299H38.2699L37.5799 29.3799H39.7599C42.2499 29.3799 44.2799 27.3499 44.2799 24.8599V10.9099H39.6599L39.6399 10.8999Z" fill="#231815"/>
<path d="M18.48 10.8999L11.61 18.4799L4.74 10.8999H0V28.8999H4.74V17.0899L11.61 24.6699L18.48 17.0899V28.8999H23.22V10.8999H18.48Z" fill="#231815"/>
<path d="M63.1897 5.3999H59.6797V8.9099H63.1897V5.3999Z" fill="white"/>
<path d="M85.0403 5.3999H81.5303V8.9099H85.0403V5.3999Z" fill="white"/>
<path d="M98.4902 10.8999H103.35V24.5899C103.35 25.0899 103.75 25.4899 104.25 25.4899H109.42L111.54 29.3799H102.78C100.41 29.3799 98.4902 27.4599 98.4902 25.0899V10.9099V10.8999Z" fill="white"/>
<path d="M74.8903 16.0899C74.8903 13.2299 72.5703 10.8999 69.7003 10.8999H54.7803V29.3699H59.6403V24.5099H69.6903C72.5503 24.5099 74.8803 22.1899 74.8803 19.3199V16.0799L74.8903 16.0899ZM59.6503 20.8399V14.5699H68.7203C70.0003 14.5699 71.0303 15.5099 71.0003 16.6399C70.9803 17.3399 70.9603 18.1299 70.9603 18.8299C70.9603 19.9399 69.9303 20.8399 68.6803 20.8399H59.6503Z" fill="white"/>
<path d="M96.7399 16.0899C96.7399 13.2299 94.4199 10.8999 91.5499 10.8999H76.6299V29.3699H81.4899V24.5099H91.5399C94.3999 24.5099 96.7299 22.1899 96.7299 19.3199V16.0799L96.7399 16.0899ZM81.4999 20.8399V14.5699H90.5699C91.8499 14.5699 92.8799 15.5099 92.8499 16.6399C92.8299 17.3399 92.8099 18.1299 92.8099 18.8299C92.8099 19.9399 91.7799 20.8399 90.5299 20.8399H81.4999Z" fill="white"/>
<path d="M7.45961 12.39L5.16961 9.86L1.75961 9.87L2.80961 6.62L1.09961 3.67L4.42961 2.95L6.13961 0L8.41961 2.53H11.8296L10.7896 5.77L12.4896 8.72L9.15961 9.44L7.45961 12.39Z" fill="#E84469"/>
</g>
<defs>
<clipPath id="clip0_1105_397">
<rect width="117.24" height="46.79" fill="white"/>
</clipPath>
</defs>
</svg>
